<svg xmlns="http://www.w3.org/2000/svg" version="1.1" xmlns:xlink="http://www.w3.org/1999/xlink" xmlns:svgjs="http://svgjs.com/svgjs" width="1000" height="1000"><rect width="1000" height="1000" rx="300" ry="300" fill="#ffffff"></rect><g transform="matrix(0.3515625,0,0,0.3515625,1.467397689819336,235.39687657356262)"><svg xmlns="http://www.w3.org/2000/svg" version="1.1" xmlns:xlink="http://www.w3.org/1999/xlink" xmlns:svgjs="http://svgjs.com/svgjs" width="2560" height="1440"><svg xmlns:dc="http://purl.org/dc/elements/1.1/" xmlns:cc="http://creativecommons.org/ns#" xmlns:rdf="http://www.w3.org/1999/02/22-rdf-syntax-ns#" xmlns:svg="http://www.w3.org/2000/svg" xmlns="http://www.w3.org/2000/svg" xmlns:sodipodi="http://sodipodi.sourceforge.net/DTD/sodipodi-0.dtd" xmlns:inkscape="http://www.inkscape.org/namespaces/inkscape" version="1.1" id="svg2" xml:space="preserve" width="2560" height="1440" viewBox="0 0 2560 1440" sodipodi:docname="Navitec Logo Vector Grey.ai"><metadata id="metadata8"><rdf:rdf><cc:work rdf:about=""><dc:format>image/svg+xml</dc:format><dc:type rdf:resource="http://purl.org/dc/dcmitype/StillImage"></dc:type></cc:work></rdf:rdf></metadata><defs id="defs6"><clipPath clipPathUnits="userSpaceOnUse" id="clipPath40"><path d="M 0,1080 H 1920 V 0 H 0 Z" id="path38"></path></clipPath></defs><sodipodi:namedview pagecolor="#ffffff" bordercolor="#666666" borderopacity="1" objecttolerance="10" gridtolerance="10" guidetolerance="10" inkscape:pageopacity="0" inkscape:pageshadow="2" inkscape:window-width="640" inkscape:window-height="480" id="namedview4"></sodipodi:namedview><g id="g10" inkscape:groupmode="layer" inkscape:label="Navitec Logo Vector Grey" transform="matrix(1.3333333,0,0,-1.3333333,0,1440)"><g id="g12" transform="translate(423.793,680.7153)"><path d="M 0,0 H 27.412 V -115.304 H 0 l -60.335,75.999 v -75.999 H -87.747 V -4.496 l 27.412,7.397 60.335,-76 z" style="fill:#777777;fill-opacity:1;fill-rule:nonzero;stroke:none" id="path14"></path></g><g id="g16" transform="translate(508.9297,580.7852)"><path d="M 0,0 10.008,23.496 H 42.206 L 19.726,71.358 -20.45,-15.374 H -49.313 L 5.366,95.434 32.924,102.831 89.633,-15.374 H 60.626 L 53.374,0 Z" style="fill:#777777;fill-opacity:1;fill-rule:nonzero;stroke:none" id="path18"></path></g><g id="g20" transform="translate(635.6924,593.9834)"><path d="M 0,0 40.175,86.732 H 69.037 L 14.358,-24.076 -13.199,-31.473 -69.908,86.732 h 29.007 z" style="fill:#777777;fill-opacity:1;fill-rule:nonzero;stroke:none" id="path22"></path></g><path d="m 715.317,680.715 h 27.412 V 565.411 h -27.412 z" style="fill:#777777;fill-opacity:1;fill-rule:nonzero;stroke:none" id="path24"></path><g id="g26" transform="translate(755.7832,656.2041)"><path d="M 0,0 V 24.511 H 120.525 L 113.129,0 H 70.053 V -90.793 H 42.495 V 0 Z" style="fill:#777777;fill-opacity:1;fill-rule:nonzero;stroke:none" id="path28"></path></g><g id="g30" transform="translate(916.3389,610.6626)"><path d="M 0,0 V -20.74 H 84.121 L 76.725,-45.251 H -27.412 V 70.053 H 84.121 L 76.725,45.542 H 0 V 24.511 H 71.503 V 0 Z" style="fill:#777777;fill-opacity:1;fill-rule:nonzero;stroke:none" id="path32"></path></g><g id="g34"><g id="g36" clip-path="url(#clipPath40)"><g id="g42" transform="translate(1057.1689,680.7153)"><path d="M 0,0 H 73.969 L 66.572,-24.511 H 3.336 c -8.316,0 -14.649,-4.641 -19,-13.924 -2.708,-5.996 -4.061,-12.668 -4.061,-20.015 0,-11.41 2.901,-20.16 8.703,-26.251 3.963,-4.061 8.75,-6.092 14.358,-6.092 h 70.633 l -7.397,-24.511 H 0 c -15.761,0 -28.187,6.574 -37.274,19.725 -7.639,10.925 -11.458,23.881 -11.458,38.87 0,15.856 4.206,29.102 12.618,39.74 C -27.122,-5.754 -15.084,-0.097 0,0" style="fill:#777777;fill-opacity:1;fill-rule:nonzero;stroke:none" id="path44"></path></g><g id="g46" transform="translate(571.5869,464.7627)"><path d="m 0,0 c -15.471,0 -26.977,4.932 -34.519,14.794 -4.545,5.896 -6.816,12.568 -6.816,20.015 0,10.055 3.793,18.42 11.385,25.091 7.59,6.672 17.572,10.008 29.95,10.008 H 78.32 L 70.924,45.396 H 0.29 c -5.898,0 -9.814,-2.175 -11.748,-6.526 -0.58,-1.355 -0.87,-2.708 -0.87,-4.061 0,-4.159 2.031,-7.205 6.092,-9.137 1.933,-0.87 4.108,-1.306 6.526,-1.306 h 39.74 c 14.794,0 26.01,-4.738 33.649,-14.214 4.834,-6.09 7.252,-13.006 7.252,-20.74 0,-10.058 -3.771,-18.372 -11.313,-24.946 -7.542,-6.576 -17.404,-9.862 -29.588,-9.862 h -81.365 l 7.397,24.511 H 39.74 c 5.994,0 9.91,2.125 11.748,6.381 0.58,1.256 0.87,2.562 0.87,3.916 0,4.156 -1.934,7.202 -5.8,9.138 C 44.526,-0.485 42.254,0 39.74,0 Z" style="fill:#777777;fill-opacity:1;fill-rule:nonzero;stroke:none" id="path48"></path></g><g id="g50" transform="translate(738.2344,458.5264)"><path d="M 0,0 V -39.16 H -27.411 V 0.58 l -55.84,75.565 h 31.908 l 37.855,-54.099 37.854,54.099 h 31.908 z" style="fill:#777777;fill-opacity:1;fill-rule:nonzero;stroke:none" id="path52"></path></g><g id="g54" transform="translate(839.3252,464.7627)"><path d="m 0,0 c -15.471,0 -26.977,4.932 -34.519,14.794 -4.545,5.896 -6.816,12.568 -6.816,20.015 0,10.055 3.793,18.42 11.385,25.091 7.59,6.672 17.572,10.008 29.95,10.008 H 78.32 L 70.924,45.396 H 0.29 c -5.898,0 -9.814,-2.175 -11.748,-6.526 -0.58,-1.355 -0.87,-2.708 -0.87,-4.061 0,-4.159 2.031,-7.205 6.092,-9.137 1.933,-0.87 4.108,-1.306 6.526,-1.306 h 39.74 c 14.794,0 26.01,-4.738 33.649,-14.214 4.834,-6.09 7.252,-13.006 7.252,-20.74 0,-10.058 -3.771,-18.372 -11.313,-24.946 -7.542,-6.576 -17.404,-9.862 -29.588,-9.862 h -81.365 l 7.397,24.511 H 39.74 c 5.994,0 9.91,2.125 11.748,6.381 0.58,1.256 0.87,2.562 0.87,3.916 0,4.156 -1.934,7.202 -5.8,9.138 C 44.526,-0.485 42.254,0 39.74,0 Z" style="fill:#777777;fill-opacity:1;fill-rule:nonzero;stroke:none" id="path56"></path></g><g id="g58" transform="translate(927.3633,510.1592)"><path d="M 0,0 V 24.512 H 120.525 L 113.129,0 H 70.053 V -90.793 H 42.495 V 0 Z" style="fill:#777777;fill-opacity:1;fill-rule:nonzero;stroke:none" id="path60"></path></g><g id="g62" transform="translate(1087.9189,464.6182)"><path d="M 0,0 V -20.74 H 84.121 L 76.725,-45.252 H -27.412 V 70.053 H 84.121 L 76.725,45.541 H 0 V 24.511 H 71.503 V 0 Z" style="fill:#777777;fill-opacity:1;fill-rule:nonzero;stroke:none" id="path64"></path></g><g id="g66" transform="translate(1304.6035,534.6709)"><path d="M 0,0 H 27.412 V -115.305 H 0 v 66.283 l -35.099,-62.512 h -18.42 l -35.098,59.9 v -63.671 h -27.412 V -4.496 l 27.412,7.396 44.526,-81.51 z" style="fill:#777777;fill-opacity:1;fill-rule:nonzero;stroke:none" id="path68"></path></g><g id="g70" transform="translate(1390.7549,464.7627)"><path d="m 0,0 c -15.471,0 -26.977,4.932 -34.519,14.794 -4.545,5.896 -6.816,12.568 -6.816,20.015 0,10.055 3.793,18.42 11.385,25.091 7.59,6.672 17.572,10.008 29.95,10.008 H 78.32 L 70.924,45.396 H 0.29 c -5.898,0 -9.814,-2.175 -11.748,-6.526 -0.58,-1.355 -0.87,-2.708 -0.87,-4.061 0,-4.159 2.031,-7.205 6.092,-9.137 1.933,-0.87 4.108,-1.306 6.526,-1.306 h 39.74 c 14.794,0 26.01,-4.738 33.649,-14.214 4.834,-6.09 7.252,-13.006 7.252,-20.74 0,-10.058 -3.771,-18.372 -11.313,-24.946 -7.542,-6.576 -17.404,-9.862 -29.588,-9.862 h -81.365 l 7.397,24.511 H 39.74 c 5.994,0 9.91,2.125 11.748,6.381 0.58,1.256 0.87,2.562 0.87,3.916 0,4.156 -1.934,7.202 -5.8,9.138 C 44.526,-0.485 42.254,0 39.74,0 Z" style="fill:#777777;fill-opacity:1;fill-rule:nonzero;stroke:none" id="path72"></path></g><g id="g74" transform="translate(1227.564,705.5076)"><path d="m 0,0 c -24.182,60.14 -79.428,100.928 -151.774,120.03 -93.017,24.56 -214.302,13.272 -334.176,-38.823 -36.081,-15.68 -53.034,-24.503 -79.571,-40.161 h 33.577 V 22.295 22.276 c 18.599,10.499 38.114,20.265 58.487,29.119 195.191,84.827 392.835,55.579 441.451,-65.326 17.122,-42.583 13.45,-90.856 -6.988,-139.234 H -3.903 C 16.353,-100.185 18.98,-47.201 0,0" style="fill:#e50914;fill-opacity:1;fill-rule:nonzero;stroke:none" id="path76"></path></g><g id="g78" transform="translate(453.4395,552.3895)"><path d="m 0,0 c -27.557,-54.989 -33.316,-110.716 -11.604,-159.773 56.967,-128.717 281.2,-162.761 500.838,-76.04 39.921,15.762 76.905,34.448 110.405,55.221 h -29.947 v 17.912 c -28.403,-16.687 -60.102,-30.109 -93.19,-43.173 -201.171,-79.43 -403.352,-53.555 -453.457,59.658 -19.73,44.58 -12.66,95.602 15.4,146.195 z" style="fill:#e50914;fill-opacity:1;fill-rule:nonzero;stroke:none" id="path80"></path></g></g></g></g></svg></svg></g></svg>